<?xml version="1.0" encoding="UTF-8"?>
<!DOCTYPE svg PUBLIC "-//W3C//DTD SVG 1.1//EN" "http://www.w3.org/Graphics/SVG/1.1/DTD/svg11.dtd">
<svg xmlns="http://www.w3.org/2000/svg" version="1.1" width="300px" height="64px" style="shape-rendering:geometricPrecision; text-rendering:geometricPrecision; image-rendering:optimizeQuality; fill-rule:evenodd; clip-rule:evenodd" xmlns:xlink="http://www.w3.org/1999/xlink">
<g><path style="opacity:0.873" fill="#407e2b" d="M 176.5,-0.5 C 178.167,-0.5 179.833,-0.5 181.5,-0.5C 181.922,2.98759 182.755,6.32092 184,9.5C 186.719,8.55621 189.552,8.22288 192.5,8.5C 192.5,10.1667 192.5,11.8333 192.5,13.5C 189.393,13.3512 186.393,13.8512 183.5,15C 184.648,21.7011 185.981,28.3677 187.5,35C 189.809,35.7562 191.809,35.2562 193.5,33.5C 195.535,34.5965 196.868,36.2632 197.5,38.5C 216.093,35.3676 234.76,32.701 253.5,30.5C 254.5,37.8333 255.5,45.1667 256.5,52.5C 232.341,55.9727 208.341,59.6394 184.5,63.5C 176.167,63.5 167.833,63.5 159.5,63.5C 158.46,57.8838 157.793,52.2171 157.5,46.5C 147.136,47.728 143.302,43.3947 146,33.5C 147.167,32.3333 148.333,31.1667 149.5,30C 154.029,28.1693 158.363,26.1693 162.5,24C 159.155,16.0086 154.488,15.342 148.5,22C 145.478,22.6363 143.978,21.4697 144,18.5C 151.281,10.5678 158.948,9.90116 167,16.5C 169.566,24.625 171.066,32.9583 171.5,41.5C 175.247,41.6076 178.914,41.1076 182.5,40C 181.299,39.0975 180.465,37.9308 180,36.5C 178.907,29.8475 177.907,23.1809 177,16.5C 175.301,15.5939 173.467,15.2606 171.5,15.5C 171.162,11.8493 172.828,10.1826 176.5,10.5C 176.5,6.83333 176.5,3.16667 176.5,-0.5 Z M 161.5,30.5 C 165.223,34.0702 164.889,37.2369 160.5,40C 157.426,42.004 154.593,41.8373 152,39.5C 151.333,38.1667 151.333,36.8333 152,35.5C 154.907,33.1317 158.074,31.465 161.5,30.5 Z"/></g>
<g><path style="opacity:0.786" fill="#3f7e2a" d="M 127.5,1.5 C 129.833,1.5 132.167,1.5 134.5,1.5C 136.5,17.1667 138.5,32.8333 140.5,48.5C 137.856,48.8399 135.523,48.1733 133.5,46.5C 122.479,54.7703 114.646,52.4369 110,39.5C 109.161,34.0788 109.494,28.7455 111,23.5C 115.812,17.1131 121.812,15.4464 129,18.5C 128.463,12.8904 127.963,7.22371 127.5,1.5 Z M 121.5,22.5 C 124.685,22.0196 127.519,22.6863 130,24.5C 130.88,29.1602 131.713,33.8269 132.5,38.5C 129.436,45.2476 124.936,46.5809 119,42.5C 116.69,37.7339 116.023,32.7339 117,27.5C 118.025,25.313 119.525,23.6464 121.5,22.5 Z"/></g>
<g><path style="opacity:0.776" fill="#3f7d29" d="M 87.5,21.5 C 96.5761,20.0855 102.409,23.7522 105,32.5C 105.72,34.1124 105.554,35.6124 104.5,37C 97.3653,38.0875 90.3653,39.5875 83.5,41.5C 85.2779,48.4467 89.6113,50.9467 96.5,49C 98.7621,47.9532 100.929,46.7865 103,45.5C 107.452,47.2597 107.619,49.4264 103.5,52C 91.2474,58.8968 82.4141,56.0634 77,43.5C 74.1356,32.8544 77.6356,25.5211 87.5,21.5 Z M 89.5,26.5 C 94.0058,26.2522 97.0058,28.2522 98.5,32.5C 93.701,34.3303 88.701,35.3303 83.5,35.5C 83.2801,30.9216 85.2801,27.9216 89.5,26.5 Z"/></g>
<g><path style="opacity:0.766" fill="#3f7e29" d="M 58.5,25.5 C 63.1774,25.059 67.1774,26.3923 70.5,29.5C 70.1667,31.1667 69.1667,32.1667 67.5,32.5C 63.7372,31.0156 60.0706,31.1822 56.5,33C 55.4464,34.3876 55.2797,35.8876 56,37.5C 60.7802,39.0516 65.6135,40.5516 70.5,42C 76.3406,53.1383 72.8406,59.3049 60,60.5C 56.4474,60.3165 53.2807,59.1498 50.5,57C 51.1258,56.2496 51.6258,55.4162 52,54.5C 56.0675,54.2634 60.2342,54.0967 64.5,54C 67.9855,52.0528 68.3188,49.7195 65.5,47C 60.6775,46.1698 56.0108,44.8365 51.5,43C 47.6772,38.7054 47.5105,34.2054 51,29.5C 53.5138,27.9958 56.0138,26.6624 58.5,25.5 Z"/></g>
<g><path style="opacity:1" fill="#7f8852" d="M 222.5,38.5 C 223.404,39.209 223.737,40.209 223.5,41.5C 224.791,41.2627 225.791,41.596 226.5,42.5C 225.209,42.2627 224.209,42.596 223.5,43.5C 222.549,42.0813 222.216,40.4147 222.5,38.5 Z"/></g>
<g><path style="opacity:1" fill="#ce9c86" d="M 243.5,39.5 C 245.369,41.6353 246.036,44.3019 245.5,47.5C 244.713,51.3695 243.047,52.0362 240.5,49.5C 241.262,49.0894 242.262,48.9227 243.5,49C 244.451,48.2825 244.617,47.4491 244,46.5C 241.546,48.013 239.879,47.3463 239,44.5C 236.643,49.5252 234.143,49.6919 231.5,45C 232.888,40.1523 235.555,39.3189 239.5,42.5C 240.283,40.7118 241.616,39.7118 243.5,39.5 Z"/></g>
<g><path style="opacity:1" fill="#4a7f30" d="M 242.5,40.5 C 244.896,41.8275 244.896,43.4942 242.5,45.5C 241.566,43.9052 241.566,42.2385 242.5,40.5 Z"/></g>
<g><path style="opacity:1" fill="#4c8032" d="M 235.5,41.5 C 237.273,42.3143 237.773,43.6476 237,45.5C 235.989,46.3366 234.822,46.67 233.5,46.5C 233.392,44.4862 234.058,42.8195 235.5,41.5 Z"/></g>
<g><path style="opacity:1" fill="#c69a80" d="M 222.5,38.5 C 222.216,40.4147 222.549,42.0813 223.5,43.5C 224.209,42.596 225.209,42.2627 226.5,42.5C 228.048,47.6358 226.048,50.3025 220.5,50.5C 220.198,46.2095 220.864,42.2095 222.5,38.5 Z"/></g>
<g><path style="opacity:1" fill="#467f2e" d="M 223.5,43.5 C 226.063,44.9979 226.063,46.6646 223.5,48.5C 222.566,46.9052 222.566,45.2385 223.5,43.5 Z"/></g>
<g><path style="opacity:1" fill="#8f8b5c" d="M 243.5,39.5 C 244.209,38.596 245.209,38.2627 246.5,38.5C 246.81,41.7131 246.477,44.7131 245.5,47.5C 246.036,44.3019 245.369,41.6353 243.5,39.5 Z"/></g>
<g><path style="opacity:1" fill="#ba9678" d="M 213.5,39.5 C 214.794,41.0478 215.461,43.0478 215.5,45.5C 215.167,47.5 214.833,49.5 214.5,51.5C 213.509,47.5546 213.176,43.5546 213.5,39.5 Z"/></g>
<g><path style="opacity:1" fill="#b89677" d="M 229.5,37.5 C 230.809,41.3507 230.809,45.3507 229.5,49.5C 228.302,45.4885 228.302,41.4885 229.5,37.5 Z"/></g>
<g><path style="opacity:1" fill="#cd9c85" d="M 198.5,45.5 C 200.297,45.9349 202.297,45.9349 204.5,45.5C 204.228,53.8865 203.394,54.2198 202,46.5C 200.019,48.3591 199.019,50.6924 199,53.5C 198.503,50.854 198.336,48.1873 198.5,45.5 Z"/></g>
<g><path style="opacity:1" fill="#cf9c87" d="M 209.5,43.5 C 211.369,45.6353 212.036,48.3019 211.5,51.5C 206.987,53.6674 205.154,52.3341 206,47.5C 206.69,45.6498 207.856,44.3164 209.5,43.5 Z"/></g>
<g><path style="opacity:1" fill="#518034" d="M 208.5,45.5 C 210.896,46.8275 210.896,48.4942 208.5,50.5C 207.334,48.8327 207.334,47.166 208.5,45.5 Z"/></g>
<g><path style="opacity:1" fill="#dca08f" d="M 179.5,48.5 C 180.873,48.3433 182.207,48.51 183.5,49C 181.683,50.7998 180.516,52.9664 180,55.5C 179.503,53.1902 179.337,50.8568 179.5,48.5 Z"/></g>
<g><path style="opacity:1" fill="#cd9c85" d="M 185.5,47.5 C 186.552,47.3505 187.552,47.5172 188.5,48C 187.328,48.4186 186.328,49.0853 185.5,50C 189.191,51.6903 189.357,53.5237 186,55.5C 185.5,55.3333 185,55.1667 184.5,55C 185.308,54.6924 185.975,54.1924 186.5,53.5C 184.454,51.719 184.12,49.719 185.5,47.5 Z"/></g>
<g><path style="opacity:1" fill="#c4997f" d="M 191.5,46.5 C 196.068,46.0826 197.568,48.0826 196,52.5C 193.916,55.033 191.916,55.033 190,52.5C 189.252,50.1599 189.752,48.1599 191.5,46.5 Z"/></g>
<g><path style="opacity:1" fill="#487f2f" d="M 191.5,48.5 C 192.5,48.5 193.5,48.5 194.5,48.5C 193.5,55.1667 192.5,55.1667 191.5,48.5 Z"/></g>
<g><path style="opacity:1" fill="#c89b82" d="M 173.5,49.5 C 174.833,49.5 176.167,49.5 177.5,49.5C 177.548,52.2919 176.215,54.1253 173.5,55C 174.784,55.6838 175.951,55.5171 177,54.5C 177.301,57.0915 176.134,57.9248 173.5,57C 172.667,56.1667 171.833,55.3333 171,54.5C 170.125,57.2146 168.292,58.5479 165.5,58.5C 164.104,59.4194 163.77,56.7527 164.5,50.5C 167.365,50.0548 169.865,50.7215 172,52.5C 172.513,51.4734 173.013,50.4734 173.5,49.5 Z"/></g>
<g><path style="opacity:1" fill="#4c8032" d="M 167.5,51.5 C 170.063,52.9979 170.063,54.6646 167.5,56.5C 166.334,54.8327 166.334,53.166 167.5,51.5 Z"/></g>
</svg>
