<?xml version="1.0" encoding="UTF-8"?>
<!DOCTYPE svg PUBLIC "-//W3C//DTD SVG 1.1//EN" "http://www.w3.org/Graphics/SVG/1.1/DTD/svg11.dtd">
<svg xmlns="http://www.w3.org/2000/svg" version="1.1" width="197px" height="42px" style="shape-rendering:geometricPrecision; text-rendering:geometricPrecision; image-rendering:optimizeQuality; fill-rule:evenodd; clip-rule:evenodd" xmlns:xlink="http://www.w3.org/1999/xlink">
<g><path style="opacity:0.988" fill="#3f7e2a" d="M 709.5,-0.5 C 714.833,-0.5 720.167,-0.5 725.5,-0.5C 727.682,12.4373 729.682,25.4373 731.5,38.5C 743.454,37.435 755.288,35.7683 767,33.5C 768.624,38.4945 769.79,43.6611 770.5,49C 770.355,49.772 770.022,50.4387 769.5,51C 757.866,52.8288 746.199,54.3288 734.5,55.5C 737.563,81.214 741.063,106.881 745,132.5C 746.886,142.2 752.719,146.033 762.5,144C 766.681,142.487 770.348,140.154 773.5,137C 774.833,136.333 776.167,136.333 777.5,137C 781.174,140.342 784.508,144.008 787.5,148C 785.167,150.333 782.833,152.667 780.5,155C 856.643,144.456 932.81,133.622 1009,122.5C 1010.66,122.675 1011.99,123.342 1013,124.5C 1016.93,150.986 1020.76,177.486 1024.5,204C 1024.32,205.658 1023.66,206.991 1022.5,208C 915.992,223.286 809.658,238.786 703.5,254.5C 682.833,254.5 662.167,254.5 641.5,254.5C 638.073,230.514 634.74,206.514 631.5,182.5C 617.956,186.381 605.29,184.548 593.5,177C 582.16,165.14 579.66,151.64 586,136.5C 595.989,123.908 608.822,115.408 624.5,111C 634.308,107.881 644.308,105.714 654.5,104.5C 653.706,97.0291 652.206,89.6958 650,82.5C 642.039,68.7347 630.539,64.9014 615.5,71C 607.62,74.773 600.62,79.773 594.5,86C 590.551,88.2729 586.884,87.9396 583.5,85C 582.023,82.5551 580.19,80.3884 578,78.5C 581.25,71.8968 586.084,66.3968 592.5,62C 609.603,50.0382 628.27,46.7048 648.5,52C 663.482,59.0865 672.315,70.9199 675,87.5C 679.255,114.449 683.088,141.449 686.5,168.5C 703.323,166.883 719.99,164.383 736.5,161C 729.167,156.512 724.667,150.012 723,141.5C 718.721,114.544 714.721,87.5439 711,60.5C 710.275,59.9415 709.442,59.6082 708.5,59.5C 703.542,60.7096 698.542,61.2096 693.5,61C 691.113,60.0239 689.946,58.1906 690,55.5C 689.223,52.5706 689.39,49.7372 690.5,47C 696.777,45.1838 703.11,43.6838 709.5,42.5C 708.471,28.1008 708.471,13.7674 709.5,-0.5 Z M 652.5,119.5 C 654.451,119.227 655.951,119.893 657,121.5C 657.936,128.887 659.103,136.221 660.5,143.5C 648.773,163.125 632.106,169.625 610.5,163C 603.657,155.413 602.823,147.247 608,138.5C 611.946,134.555 616.446,131.389 621.5,129C 631.719,125.035 642.052,121.869 652.5,119.5 Z M 663.5,159.5 C 665.725,162.812 667.392,166.478 668.5,170.5C 661.992,172.644 655.325,173.81 648.5,174C 654.664,170.335 659.664,165.502 663.5,159.5 Z"/></g>
<g><path style="opacity:0.978" fill="#3f7e2a" d="M 530.5,6.5 C 532.766,6.14118 534.599,6.80784 536,8.5C 544.603,68.886 553.436,129.219 562.5,189.5C 559.78,191.111 556.78,191.944 553.5,192C 549.091,193.262 545.257,192.428 542,189.5C 540.632,184.676 538.965,180.009 537,175.5C 518.44,202.342 494.607,208.509 465.5,194C 450.835,180.046 442.669,162.879 441,142.5C 438.184,123.916 441.517,106.583 451,90.5C 466.705,71.2789 486.538,65.1123 510.5,72C 514.57,73.7336 518.403,75.9003 522,78.5C 519.353,55.4679 516.186,32.4679 512.5,9.5C 518.69,8.8569 524.69,7.8569 530.5,6.5 Z M 495.5,86.5 C 507.206,85.344 517.039,89.0106 525,97.5C 528.02,116.638 530.853,135.805 533.5,155C 530.506,166.338 523.506,174.338 512.5,179C 496.198,185.706 483.031,181.872 473,167.5C 464.61,149.515 462.276,130.848 466,111.5C 470.805,97.1922 480.639,88.8588 495.5,86.5 Z"/></g>
<g><path style="opacity:0.972" fill="#3f7e2a" d="M 360.5,87.5 C 393.894,86.7295 413.727,102.73 420,135.5C 420.667,138.833 420.667,142.167 420,145.5C 417.734,146.956 415.234,147.79 412.5,148C 385.813,151.789 359.147,155.622 332.5,159.5C 340.223,198.476 362.223,209.642 398.5,193C 403.452,188.875 408.785,185.375 414.5,182.5C 419.193,184.682 423.193,187.849 426.5,192C 411.896,210.383 392.729,219.55 369,219.5C 339.448,217.955 320.448,202.955 312,174.5C 305.897,156.669 306.23,139.002 313,121.5C 322.888,101.767 338.722,90.4341 360.5,87.5 Z M 368.5,104.5 C 386.265,106.764 396.098,116.764 398,134.5C 375.584,138.155 353.084,141.488 330.5,144.5C 331.33,119.674 343.997,106.341 368.5,104.5 Z"/></g>
<g><path style="opacity:0.97" fill="#3f7e29" d="M 243.5,104.5 C 256.808,103.868 268.975,107.201 280,114.5C 279.442,119.127 277.608,123.294 274.5,127C 272.167,127.667 269.833,127.667 267.5,127C 254.801,121.047 242.135,121.047 229.5,127C 220.641,132.308 218.141,139.808 222,149.5C 225.677,153.423 230.177,155.923 235.5,157C 244.164,158.666 252.831,160.333 261.5,162C 289.688,167.541 299.521,184.041 291,211.5C 283.029,225.775 270.863,234.275 254.5,237C 237.149,240.358 221.149,237.191 206.5,227.5C 207.903,224.125 209.403,220.791 211,217.5C 212.501,215.416 214.501,214.083 217,213.5C 223.102,215.867 229.269,218.034 235.5,220C 244.455,221.234 253.122,220.234 261.5,217C 271.578,211.102 274.745,202.602 271,191.5C 268.292,187.896 264.792,185.396 260.5,184C 248.196,181.227 235.862,178.56 223.5,176C 201.225,168.282 193.725,153.116 201,130.5C 206.253,120.583 214.087,113.416 224.5,109C 230.857,106.992 237.19,105.492 243.5,104.5 Z"/></g>
<g><path style="opacity:1" fill="#e7a496" d="M 921.5,194.5 C 920.167,194.5 918.833,194.5 917.5,194.5C 917.5,191.833 917.5,189.167 917.5,186.5C 917.484,174.067 918.484,161.733 920.5,149.5C 921.736,148.754 923.07,148.421 924.5,148.5C 923.412,163.827 922.412,179.16 921.5,194.5 Z"/></g>
<g><path style="opacity:1" fill="#e7a496" d="M 891.5,153.5 C 892.461,155.265 892.795,157.265 892.5,159.5C 891.852,164.828 891.685,170.162 892,175.5C 894.49,169.978 898.657,167.478 904.5,168C 910.046,171.732 911.879,176.899 910,183.5C 906.768,196.208 898.602,201.542 885.5,199.5C 885.876,184.478 886.71,169.478 888,154.5C 889.011,153.663 890.178,153.33 891.5,153.5 Z"/></g>
<g><path style="opacity:1" fill="#898f59" d="M 891.5,153.5 C 891.56,152.957 891.893,152.624 892.5,152.5C 893.797,154.973 893.797,157.307 892.5,159.5C 892.795,157.265 892.461,155.265 891.5,153.5 Z"/></g>
<g><path style="opacity:1" fill="#e8a497" d="M 974.5,156.5 C 978.167,156.5 981.833,156.5 985.5,156.5C 984.858,168.488 984.358,180.488 984,192.5C 979.545,202.83 972.545,205.164 963,199.5C 961.783,195.647 962.95,192.98 966.5,191.5C 967.167,191.833 967.833,192.167 968.5,192.5C 967.233,194.371 967.233,196.204 968.5,198C 973.805,199.432 977.305,197.599 979,192.5C 979.667,188.833 979.667,185.167 979,181.5C 977.167,183.333 975.333,185.167 973.5,187C 964.855,189.709 960.855,186.375 961.5,177C 961.698,167.417 966.031,160.584 974.5,156.5 Z"/></g>
<g><path style="opacity:1" fill="#e7a496" d="M 859.5,203.5 C 858.5,203.5 857.5,203.5 856.5,203.5C 856.5,202.167 856.5,200.833 856.5,199.5C 856.824,185.805 857.657,172.139 859,158.5C 860.356,157.62 861.856,157.286 863.5,157.5C 862.777,173.188 861.443,188.521 859.5,203.5 Z"/></g>
<g><path style="opacity:1" fill="#457f2d" d="M 975.5,160.5 C 977.167,160.5 978.833,160.5 980.5,160.5C 980.427,167.189 978.927,173.523 976,179.5C 973.6,183.687 970.6,184.354 967,181.5C 965.437,172.637 968.271,165.637 975.5,160.5 Z"/></g>
<g><path style="opacity:1" fill="#e5a495" d="M 941.5,161.5 C 953.624,161.355 958.457,167.355 956,179.5C 952.779,189.093 946.279,193.26 936.5,192C 928.636,185.25 927.47,177.416 933,168.5C 935.464,165.519 938.297,163.186 941.5,161.5 Z"/></g>
<g><path style="opacity:1" fill="#447f2d" d="M 942.5,165.5 C 948.742,165.429 951.409,168.596 950.5,175C 951.228,181.907 948.394,186.407 942,188.5C 936.953,186.926 934.787,183.426 935.5,178C 935.122,172.251 937.456,168.084 942.5,165.5 Z"/></g>
<g><path style="opacity:1" fill="#447f2d" d="M 898.5,172.5 C 900.722,172.178 902.556,172.845 904,174.5C 906.001,182.181 904.167,188.681 898.5,194C 895.883,194.822 893.216,195.322 890.5,195.5C 889.227,186.448 891.894,178.781 898.5,172.5 Z"/></g>
<g><path style="opacity:1" fill="#e7a496" d="M 836.5,176.5 C 840.5,176.5 844.5,176.5 848.5,176.5C 847.987,185.917 847.821,195.25 848,204.5C 847,205.167 846,205.833 845,206.5C 843.473,204.779 842.473,202.779 842,200.5C 838.729,206.728 833.896,208.895 827.5,207C 821.897,194.308 824.897,184.141 836.5,176.5 Z"/></g>
<g><path style="opacity:1" fill="#437f2c" d="M 837.5,180.5 C 839.5,180.5 841.5,180.5 843.5,180.5C 843.636,187.76 841.802,194.427 838,200.5C 834.436,204.749 831.769,204.416 830,199.5C 829.149,191.865 831.649,185.532 837.5,180.5 Z"/></g>
<g><path style="opacity:1" fill="#e8a497" d="M 816.5,209.5 C 815.167,209.5 813.833,209.5 812.5,209.5C 812.5,206.5 812.5,203.5 812.5,200.5C 812.5,195.5 812.5,190.5 812.5,185.5C 806.466,186.354 802.3,189.688 800,195.5C 798.596,201.044 798.096,206.71 798.5,212.5C 796.833,212.5 795.167,212.5 793.5,212.5C 793.756,203.157 794.256,193.824 795,184.5C 796.011,183.663 797.178,183.33 798.5,183.5C 799.309,185.292 799.809,187.292 800,189.5C 800.717,188.956 801.217,188.289 801.5,187.5C 804.572,182.631 808.905,180.464 814.5,181C 815.333,181.833 816.167,182.667 817,183.5C 817.632,192.186 817.466,200.852 816.5,209.5 Z"/></g>
<g><path style="opacity:1" fill="#e7a497" d="M 772.5,185.5 C 784.092,185.934 788.925,191.934 787,203.5C 782.918,215.718 775.252,219.051 764,213.5C 758.16,201.526 760.993,192.193 772.5,185.5 Z"/></g>
<g><path style="opacity:1" fill="#989263" d="M 798.5,183.5 C 798.56,182.957 798.893,182.624 799.5,182.5C 800.17,184.291 800.837,185.958 801.5,187.5C 801.217,188.289 800.717,188.956 800,189.5C 799.809,187.292 799.309,185.292 798.5,183.5 Z"/></g>
<g><path style="opacity:1" fill="#e4a395" d="M 745.5,189.5 C 748.518,189.335 751.518,189.502 754.5,190C 755.38,191.356 755.714,192.856 755.5,194.5C 752.15,194.335 748.817,194.502 745.5,195C 744.424,196.726 744.257,198.559 745,200.5C 748.881,202.446 752.214,205.112 755,208.5C 755.878,216.792 752.045,220.792 743.5,220.5C 739.054,221.56 737.054,219.894 737.5,215.5C 741.837,217.081 746.003,216.748 750,214.5C 750.667,213.167 750.667,211.833 750,210.5C 746.484,208.074 743.151,205.407 740,202.5C 739.333,199.833 739.333,197.167 740,194.5C 741.73,192.598 743.563,190.931 745.5,189.5 Z"/></g>
<g><path style="opacity:1" fill="#447f2d" d="M 772.5,190.5 C 779.286,189.618 782.62,192.618 782.5,199.5C 782.261,206.348 778.928,210.681 772.5,212.5C 767.479,211.143 765.479,207.81 766.5,202.5C 766.322,197.362 768.322,193.362 772.5,190.5 Z"/></g>
<g><path style="opacity:1" fill="#9b9365" d="M 917.5,186.5 C 917.5,189.167 917.5,191.833 917.5,194.5C 918.833,194.5 920.167,194.5 921.5,194.5C 920.081,195.451 918.415,195.784 916.5,195.5C 916.19,192.287 916.523,189.287 917.5,186.5 Z"/></g>
<g><path style="opacity:1" fill="#e7a496" d="M 729.5,192.5 C 731.167,192.5 732.833,192.5 734.5,192.5C 734.5,194.167 734.5,195.833 734.5,197.5C 731.675,197.081 729.509,198.081 728,200.5C 723.887,207.595 722.387,215.261 723.5,223.5C 721.833,223.5 720.167,223.5 718.5,223.5C 718.137,213.752 718.804,204.085 720.5,194.5C 721.736,193.754 723.07,193.421 724.5,193.5C 724.338,195.527 724.505,197.527 725,199.5C 726.012,196.798 727.512,194.465 729.5,192.5 Z"/></g>
<g><path style="opacity:1" fill="#e8a497" d="M 700.5,196.5 C 709.906,194.399 713.073,197.732 710,206.5C 705.776,210.697 700.942,214.03 695.5,216.5C 696.35,221.85 699.35,223.683 704.5,222C 706.333,220.833 708.167,219.667 710,218.5C 712.015,220.478 711.848,222.312 709.5,224C 704.097,228.32 698.597,228.487 693,224.5C 687.776,212.994 690.276,203.661 700.5,196.5 Z"/></g>
<g><path style="opacity:1" fill="#e7a496" d="M 661.5,246.5 C 659.744,245.448 659.077,243.781 659.5,241.5C 659.692,228.792 660.525,216.125 662,203.5C 663.356,202.62 664.856,202.286 666.5,202.5C 666.34,204.199 666.506,205.866 667,207.5C 669.565,201.261 674.065,199.094 680.5,201C 686.095,207.174 686.928,214.007 683,221.5C 679.309,229.347 673.143,232.68 664.5,231.5C 664.666,235.514 664.499,239.514 664,243.5C 663.764,245.119 662.931,246.119 661.5,246.5 Z"/></g>
<g><path style="opacity:1" fill="#4f8133" d="M 701.5,200.5 C 705.138,199.737 706.638,201.07 706,204.5C 703.278,207.444 700.111,209.777 696.5,211.5C 695.417,210.635 695.251,209.635 696,208.5C 697.273,205.403 699.107,202.736 701.5,200.5 Z"/></g>
<g><path style="opacity:1" fill="#858e57" d="M 856.5,199.5 C 856.5,200.833 856.5,202.167 856.5,203.5C 857.5,203.5 858.5,203.5 859.5,203.5C 858.432,204.434 857.099,204.768 855.5,204.5C 855.216,202.585 855.549,200.919 856.5,199.5 Z"/></g>
<g><path style="opacity:1" fill="#437e2c" d="M 673.5,204.5 C 676.238,203.965 678.072,204.965 679,207.5C 680.785,214.806 678.952,220.972 673.5,226C 670.986,227.252 668.32,227.752 665.5,227.5C 664.495,218.519 667.162,210.853 673.5,204.5 Z"/></g>
<g><path style="opacity:1" fill="#a4956b" d="M 812.5,200.5 C 812.5,203.5 812.5,206.5 812.5,209.5C 813.833,209.5 815.167,209.5 816.5,209.5C 815.081,210.451 813.415,210.784 811.5,210.5C 811.187,206.958 811.521,203.625 812.5,200.5 Z"/></g>
<g><path style="opacity:1" fill="#989263" d="M 659.5,241.5 C 659.077,243.781 659.744,245.448 661.5,246.5C 660.791,247.404 659.791,247.737 658.5,247.5C 658.205,245.265 658.539,243.265 659.5,241.5 Z"/></g>
</svg>
