<?xml version="1.0" encoding="UTF-8"?>
<!DOCTYPE svg PUBLIC "-//W3C//DTD SVG 1.1//EN" "http://www.w3.org/Graphics/SVG/1.1/DTD/svg11.dtd">
<svg xmlns="http://www.w3.org/2000/svg" version="1.1" width="197px" height="42px" style="shape-rendering:geometricPrecision; text-rendering:geometricPrecision; image-rendering:optimizeQuality; fill-rule:evenodd; clip-rule:evenodd" xmlns:xlink="http://www.w3.org/1999/xlink">
<g><path style="opacity:0.841" fill="#f5df0d" d="M 117.5,-0.5 C 117.833,-0.5 118.167,-0.5 118.5,-0.5C 119.369,1.71702 119.702,4.05035 119.5,6.5C 121.833,6.5 124.167,6.5 126.5,6.5C 126.5,7.83333 126.5,9.16667 126.5,10.5C 124.5,10.5 122.5,10.5 120.5,10.5C 121.26,15.1502 121.926,19.8169 122.5,24.5C 124.06,24.4809 125.56,24.1476 127,23.5C 128.555,24.8475 130.389,25.5142 132.5,25.5C 143.213,24.0174 153.88,22.3507 164.5,20.5C 165.086,20.7093 165.586,21.0426 166,21.5C 166.78,25.6821 167.614,29.8487 168.5,34C 168.355,34.772 168.022,35.4387 167.5,36C 155.96,37.4316 144.627,39.265 133.5,41.5C 125.167,41.5 116.833,41.5 108.5,41.5C 109.292,39.7428 110.625,38.4095 112.5,37.5C 113.768,38.4279 115.101,38.5946 116.5,38C 115.833,37.6667 115.167,37.3333 114.5,37C 115.357,36.3109 116.023,35.4776 116.5,34.5C 113.627,34.1244 110.627,34.1244 107.5,34.5C 107.5,36.8333 107.5,39.1667 107.5,41.5C 106.167,41.5 104.833,41.5 103.5,41.5C 105.009,35.3357 102.675,31.8357 96.5,31C 93.5749,27.304 93.9083,23.9707 97.5,21C 100.334,19.4002 103.334,18.2336 106.5,17.5C 103.902,12.5982 100.568,12.2648 96.5,16.5C 95.354,15.8551 94.354,15.0217 93.5,14C 98.6256,7.82439 104.126,7.32439 110,12.5C 111.253,17.773 112.087,23.1063 112.5,28.5C 114.564,28.313 116.564,27.813 118.5,27C 117.3,22.6086 116.466,18.1086 116,13.5C 115.29,12.0267 114.124,11.3601 112.5,11.5C 114.531,7.70347 116.197,3.70347 117.5,-0.5 Z M 104.5,21.5 C 108.029,22.6092 108.362,24.4425 105.5,27C 103.527,27.4955 101.527,27.6621 99.5,27.5C 99.7492,24.2556 101.416,22.2556 104.5,21.5 Z"/></g>
<g><path style="opacity:0.765" fill="#f6e006" d="M 85.5,1.5 C 86.4959,1.41423 87.3292,1.74756 88,2.5C 89.502,12.8438 91.002,23.1771 92.5,33.5C 89.6717,32.5388 87.0051,32.7054 84.5,34C 78.5207,35.9282 74.354,34.0949 72,28.5C 68.8255,17.1271 72.9922,11.7938 84.5,12.5C 84.1218,10.3537 83.7885,8.187 83.5,6C 83.7586,4.21343 84.4253,2.71343 85.5,1.5 Z M 78.5,16.5 C 80.7925,16.2436 82.9592,16.5769 85,17.5C 85.3924,20.1879 85.8924,22.8546 86.5,25.5C 85.7834,29.5246 83.4501,31.0246 79.5,30C 75.9797,25.6873 75.6464,21.1873 78.5,16.5 Z"/></g>
<g><path style="opacity:0.733" fill="#f5e006" d="M 55.5,15.5 C 64.419,13.9487 68.7523,17.4487 68.5,26C 63.8333,26.6667 59.1667,27.3333 54.5,28C 55.5,29.6667 56.5,31.3333 57.5,33C 59.5,33.6667 61.5,33.6667 63.5,33C 65.9486,29.9112 68.2819,29.9112 70.5,33C 66.3828,37.2589 61.3828,38.5922 55.5,37C 52.3374,35.5202 50.504,33.0202 50,29.5C 48.268,23.3137 50.1014,18.647 55.5,15.5 Z M 56.5,19.5 C 58.5273,19.3379 60.5273,19.5045 62.5,20C 63.3366,21.0113 63.67,22.1779 63.5,23.5C 60.7508,23.2739 58.0841,23.6072 55.5,24.5C 54.7992,22.8084 55.1325,21.1417 56.5,19.5 Z"/></g>
<g><path style="opacity:0.709" fill="#f6e106" d="M 40.5,41.5 C 39.8333,41.5 39.1667,41.5 38.5,41.5C 37.0028,40.6942 35.3361,40.0276 33.5,39.5C 32.5714,37.6783 33.2381,36.3449 35.5,35.5C 37.7676,36.5443 40.1009,36.711 42.5,36C 43.9255,34.2859 43.5922,32.9525 41.5,32C 37.5787,31.9549 34.412,30.4549 32,27.5C 30.8758,21.2795 33.5425,17.9461 40,17.5C 43.488,17.5629 45.3213,19.2295 45.5,22.5C 42.8127,22.3359 40.146,22.5026 37.5,23C 37.0426,23.414 36.7093,23.914 36.5,24.5C 40.3092,26.4242 44.1425,28.4242 48,30.5C 48.808,36.5118 46.308,40.1785 40.5,41.5 Z"/></g>
<g><path style="opacity:0.996" fill="#d9cb64" d="M 150.5,25.5 C 151.29,26.6085 151.79,27.9419 152,29.5C 153.079,27.6063 154.413,27.273 156,28.5C 156.732,30.7055 156.065,32.3722 154,33.5C 152.684,30.972 151.517,30.972 150.5,33.5C 149.914,33.2907 149.414,32.9574 149,32.5C 147.89,34.0368 146.39,34.7035 144.5,34.5C 144.187,31.7531 144.52,29.0865 145.5,26.5C 148.311,30.7026 149.978,30.3693 150.5,25.5 Z"/></g>
<g><path style="opacity:1" fill="#f2dd1e" d="M 153.5,29.5 C 155.337,29.6395 155.67,30.3061 154.5,31.5C 153.702,31.0431 153.369,30.3764 153.5,29.5 Z"/></g>
<g><path style="opacity:1" fill="#c9be7c" d="M 138.5,30.5 C 138.543,34.8926 138.043,35.2259 137,31.5C 136.31,32.7383 135.81,32.7383 135.5,31.5C 136.209,30.596 137.209,30.2627 138.5,30.5 Z"/></g>
<g><path style="opacity:1" fill="#cfc474" d="M 133.5,31.5 C 133.5,32.8333 133.5,34.1667 133.5,35.5C 132.106,31.6216 130.939,31.9549 130,36.5C 129.202,34.7412 129.369,33.0745 130.5,31.5C 131.687,30.3473 132.687,30.3473 133.5,31.5 Z"/></g>
<g><path style="opacity:0.996" fill="#d7c866" d="M 159.5,26.5 C 160.725,27.1522 161.392,28.3189 161.5,30C 162.068,33.2634 160.734,34.7634 157.5,34.5C 157.107,31.4867 157.774,28.8201 159.5,26.5 Z"/></g>
<g><path style="opacity:0.996" fill="#d2c56f" d="M 117.5,32.5 C 119.527,32.3379 121.527,32.5045 123.5,33C 123.034,34.2988 123.034,35.7988 123.5,37.5C 120.402,37.5875 120.068,37.0875 122.5,36C 120.094,32.6816 118.594,33.1816 118,37.5C 117.506,35.8659 117.34,34.1992 117.5,32.5 Z"/></g>
<g><path style="opacity:1" fill="#e3d152" d="M 133.5,35.5 C 133.5,34.1667 133.5,32.8333 133.5,31.5C 134.167,31.5 134.833,31.5 135.5,31.5C 135.81,32.7383 136.31,32.7383 137,31.5C 138.043,35.2259 138.543,34.8926 138.5,30.5C 139.79,29.9423 140.623,28.9423 141,27.5C 142.825,34.1685 140.325,36.8352 133.5,35.5 Z"/></g>
<g><path style="opacity:1" fill="#d2c56e" d="M 108.5,41.5 C 108.167,41.5 107.833,41.5 107.5,41.5C 107.5,39.1667 107.5,36.8333 107.5,34.5C 110.627,34.1244 113.627,34.1244 116.5,34.5C 116.023,35.4776 115.357,36.3109 114.5,37C 115.167,37.3333 115.833,37.6667 116.5,38C 115.101,38.5946 113.768,38.4279 112.5,37.5C 110.625,38.4095 109.292,39.7428 108.5,41.5 Z"/></g>
<g><path style="opacity:1" fill="#d1c46f" d="M 125.5,31.5 C 128.084,32.0483 129.084,33.715 128.5,36.5C 127.167,36.5 125.833,36.5 124.5,36.5C 124.366,34.7085 124.699,33.0418 125.5,31.5 Z"/></g>
<g><path style="opacity:1" fill="#f3de15" d="M 125.5,33.5 C 127.337,33.6395 127.67,34.3061 126.5,35.5C 125.702,35.0431 125.369,34.3764 125.5,33.5 Z"/></g>
</svg>
