<?xml version="1.0" encoding="UTF-8"?>
<!DOCTYPE svg PUBLIC "-//W3C//DTD SVG 1.1//EN" "http://www.w3.org/Graphics/SVG/1.1/DTD/svg11.dtd">
<svg xmlns="http://www.w3.org/2000/svg" version="1.1" width="1200px" height="1200px" style="shape-rendering:geometricPrecision; text-rendering:geometricPrecision; image-rendering:optimizeQuality; fill-rule:evenodd; clip-rule:evenodd" xmlns:xlink="http://www.w3.org/1999/xlink">
<g><path style="opacity:0.994" fill="#f6e00a" d="M 721.5,475.5 C 722.833,475.5 724.167,475.5 725.5,475.5C 727.314,489.863 729.314,504.197 731.5,518.5C 743.454,517.435 755.288,515.768 767,513.5C 768.624,518.494 769.79,523.661 770.5,529C 770.355,529.772 770.022,530.439 769.5,531C 757.866,532.829 746.199,534.329 734.5,535.5C 737.563,561.214 741.063,586.881 745,612.5C 746.886,622.2 752.719,626.033 762.5,624C 766.681,622.487 770.348,620.154 773.5,617C 774.833,616.333 776.167,616.333 777.5,617C 781.174,620.342 784.508,624.008 787.5,628C 785.167,630.333 782.833,632.667 780.5,635C 856.643,624.456 932.81,613.622 1009,602.5C 1010.66,602.675 1011.99,603.342 1013,604.5C 1016.93,630.986 1020.76,657.486 1024.5,684C 1024.17,685.167 1023.83,686.333 1023.5,687.5C 896.576,706.299 769.576,724.632 642.5,742.5C 638.834,715.835 635.167,689.168 631.5,662.5C 617.956,666.381 605.29,664.548 593.5,657C 582.16,645.14 579.66,631.64 586,616.5C 595.989,603.908 608.822,595.408 624.5,591C 634.308,587.881 644.308,585.714 654.5,584.5C 653.706,577.029 652.206,569.696 650,562.5C 642.039,548.735 630.539,544.901 615.5,551C 607.62,554.773 600.62,559.773 594.5,566C 590.551,568.273 586.884,567.94 583.5,565C 582.023,562.555 580.19,560.388 578,558.5C 581.25,551.897 586.084,546.397 592.5,542C 609.603,530.038 628.27,526.705 648.5,532C 663.482,539.087 672.315,550.92 675,567.5C 679.255,594.449 683.088,621.449 686.5,648.5C 703.323,646.883 719.99,644.383 736.5,641C 729.167,636.512 724.667,630.012 723,621.5C 718.721,594.544 714.721,567.544 711,540.5C 710.275,539.941 709.442,539.608 708.5,539.5C 703.542,540.71 698.542,541.21 693.5,541C 691.113,540.024 689.946,538.191 690,535.5C 689.223,532.571 689.39,529.737 690.5,527C 696.777,525.184 703.11,523.684 709.5,522.5C 708.667,508.507 708.5,494.507 709,480.5C 709.5,479.333 710.333,478.5 711.5,478C 714.991,477.262 718.325,476.429 721.5,475.5 Z M 652.5,599.5 C 654.451,599.227 655.951,599.893 657,601.5C 657.936,608.887 659.103,616.221 660.5,623.5C 648.773,643.125 632.106,649.625 610.5,643C 603.657,635.413 602.823,627.247 608,618.5C 611.946,614.555 616.446,611.389 621.5,609C 631.719,605.035 642.052,601.869 652.5,599.5 Z M 663.5,639.5 C 665.725,642.812 667.392,646.478 668.5,650.5C 661.992,652.644 655.325,653.81 648.5,654C 654.664,650.335 659.664,645.502 663.5,639.5 Z"/></g>
<g><path style="opacity:0.99" fill="#f6e007" d="M 530.5,486.5 C 532.766,486.141 534.599,486.808 536,488.5C 544.603,548.886 553.436,609.219 562.5,669.5C 559.78,671.111 556.78,671.944 553.5,672C 549.091,673.262 545.257,672.428 542,669.5C 540.632,664.676 538.965,660.009 537,655.5C 518.44,682.342 494.607,688.509 465.5,674C 450.835,660.046 442.669,642.879 441,622.5C 438.184,603.916 441.517,586.583 451,570.5C 466.705,551.279 486.538,545.112 510.5,552C 514.57,553.734 518.403,555.9 522,558.5C 519.353,535.468 516.186,512.468 512.5,489.5C 518.69,488.857 524.69,487.857 530.5,486.5 Z M 495.5,566.5 C 507.206,565.344 517.039,569.011 525,577.5C 528.02,596.638 530.853,615.805 533.5,635C 530.506,646.338 523.506,654.338 512.5,659C 496.198,665.706 483.031,661.872 473,647.5C 464.61,629.515 462.276,610.848 466,591.5C 470.805,577.192 480.639,568.859 495.5,566.5 Z"/></g>
<g><path style="opacity:0.989" fill="#f6e007" d="M 360.5,567.5 C 393.894,566.73 413.727,582.73 420,615.5C 420.667,618.833 420.667,622.167 420,625.5C 417.734,626.956 415.234,627.79 412.5,628C 385.813,631.789 359.147,635.622 332.5,639.5C 340.223,678.476 362.223,689.642 398.5,673C 403.452,668.875 408.785,665.375 414.5,662.5C 419.193,664.682 423.193,667.849 426.5,672C 411.896,690.383 392.729,699.55 369,699.5C 339.448,697.955 320.448,682.955 312,654.5C 305.897,636.669 306.23,619.002 313,601.5C 322.888,581.767 338.722,570.434 360.5,567.5 Z M 368.5,584.5 C 386.265,586.764 396.098,596.764 398,614.5C 375.584,618.155 353.084,621.488 330.5,624.5C 331.33,599.674 343.997,586.341 368.5,584.5 Z"/></g>
<g><path style="opacity:0.973" fill="#f7e107" d="M 243.5,584.5 C 256.808,583.868 268.975,587.201 280,594.5C 279.442,599.127 277.608,603.294 274.5,607C 272.167,607.667 269.833,607.667 267.5,607C 254.801,601.047 242.135,601.047 229.5,607C 220.641,612.308 218.141,619.808 222,629.5C 225.677,633.423 230.177,635.923 235.5,637C 244.164,638.666 252.831,640.333 261.5,642C 289.688,647.541 299.521,664.041 291,691.5C 283.029,705.775 270.863,714.275 254.5,717C 237.149,720.358 221.149,717.191 206.5,707.5C 207.903,704.125 209.403,700.791 211,697.5C 212.501,695.416 214.501,694.083 217,693.5C 223.102,695.867 229.269,698.034 235.5,700C 244.455,701.234 253.122,700.234 261.5,697C 271.578,691.102 274.745,682.602 271,671.5C 268.292,667.896 264.792,665.396 260.5,664C 248.196,661.227 235.862,658.56 223.5,656C 201.225,648.282 193.725,633.116 201,610.5C 206.253,600.583 214.087,593.416 224.5,589C 230.857,586.992 237.19,585.492 243.5,584.5 Z"/></g>
<g><path style="opacity:1" fill="#adac9a" d="M 921.5,674.5 C 920.167,674.5 918.833,674.5 917.5,674.5C 917.5,672.167 917.5,669.833 917.5,667.5C 917.528,654.744 918.528,642.077 920.5,629.5C 921.736,628.754 923.07,628.421 924.5,628.5C 923.412,643.826 922.412,659.16 921.5,674.5 Z"/></g>
<g><path style="opacity:1" fill="#aeac9a" d="M 888.5,633.5 C 889.833,633.5 891.167,633.5 892.5,633.5C 892.152,641.178 891.985,648.845 892,656.5C 894.095,650.376 898.262,647.543 904.5,648C 906.667,648.833 908.167,650.333 909,652.5C 912.081,670.922 904.248,679.922 885.5,679.5C 885.796,664.067 886.796,648.734 888.5,633.5 Z"/></g>
<g><path style="opacity:1" fill="#aeac99" d="M 974.5,636.5 C 978.167,636.5 981.833,636.5 985.5,636.5C 984.858,648.488 984.358,660.488 984,672.5C 980.995,680.754 975.162,683.921 966.5,682C 962.821,680.121 961.821,677.288 963.5,673.5C 964.689,672.571 966.022,672.238 967.5,672.5C 967.146,678.204 969.813,680.037 975.5,678C 977.487,676.681 978.654,674.848 979,672.5C 979.667,668.5 979.667,664.5 979,660.5C 976.03,667.241 971.197,669.408 964.5,667C 959.081,653.997 962.414,643.831 974.5,636.5 Z"/></g>
<g><path style="opacity:1" fill="#aeac9a" d="M 859.5,637.5 C 860.833,637.5 862.167,637.5 863.5,637.5C 862.335,652.142 861.502,666.809 861,681.5C 859.951,683.107 858.451,683.773 856.5,683.5C 856.884,668.073 857.884,652.739 859.5,637.5 Z"/></g>
<g><path style="opacity:1" fill="#f4de15" d="M 975.5,640.5 C 977.167,640.5 978.833,640.5 980.5,640.5C 980.731,647.243 979.231,653.577 976,659.5C 973.6,663.687 970.6,664.354 967,661.5C 965.437,652.637 968.271,645.637 975.5,640.5 Z"/></g>
<g><path style="opacity:1" fill="#aeac9a" d="M 941.5,641.5 C 950.826,640.494 955.826,644.661 956.5,654C 955.425,666.416 948.758,672.416 936.5,672C 929.129,665.135 927.962,657.302 933,648.5C 935.441,645.546 938.275,643.213 941.5,641.5 Z"/></g>
<g><path style="opacity:1" fill="#f3de1a" d="M 942.5,645.5 C 948.684,645.52 951.684,648.686 951.5,655C 951.384,661.737 948.217,666.237 942,668.5C 936.62,667.434 934.454,664.101 935.5,658.5C 934.972,652.553 937.305,648.22 942.5,645.5 Z"/></g>
<g><path style="opacity:1" fill="#f3de1a" d="M 898.5,652.5 C 900.722,652.178 902.556,652.845 904,654.5C 906.721,662.24 904.887,668.74 898.5,674C 895.986,675.252 893.32,675.752 890.5,675.5C 888.944,666.295 891.61,658.629 898.5,652.5 Z"/></g>
<g><path style="opacity:1" fill="#aeac9a" d="M 836.5,656.5 C 840.5,656.5 844.5,656.5 848.5,656.5C 847.503,665.895 847.336,675.228 848,684.5C 847,685.167 846,685.833 845,686.5C 843.473,684.779 842.473,682.779 842,680.5C 838.627,686.96 833.794,688.96 827.5,686.5C 821.994,674.013 824.994,664.013 836.5,656.5 Z"/></g>
<g><path style="opacity:1" fill="#f3de19" d="M 837.5,660.5 C 839.5,660.5 841.5,660.5 843.5,660.5C 844.345,667.393 842.845,673.727 839,679.5C 836.6,683.687 833.6,684.354 830,681.5C 828.567,673.044 831.067,666.044 837.5,660.5 Z"/></g>
<g><path style="opacity:1" fill="#adac9b" d="M 816.5,689.5 C 815.167,689.5 813.833,689.5 812.5,689.5C 812.5,686.833 812.5,684.167 812.5,681.5C 812.5,676.167 812.5,670.833 812.5,665.5C 805.729,666.762 801.229,670.762 799,677.5C 798.501,682.489 798.334,687.489 798.5,692.5C 796.833,692.5 795.167,692.5 793.5,692.5C 793.78,682.802 794.447,673.136 795.5,663.5C 796.5,663.5 797.5,663.5 798.5,663.5C 799.309,665.292 799.809,667.292 800,669.5C 800.717,668.956 801.217,668.289 801.5,667.5C 804.519,662.657 808.853,660.49 814.5,661C 815.333,661.833 816.167,662.667 817,663.5C 817.416,672.174 817.25,680.841 816.5,689.5 Z"/></g>
<g><path style="opacity:1" fill="#afad98" d="M 772.5,665.5 C 784.092,665.934 788.925,671.934 787,683.5C 782.918,695.718 775.252,699.051 764,693.5C 758.053,681.507 760.887,672.173 772.5,665.5 Z"/></g>
<g><path style="opacity:1" fill="#cec459" d="M 798.5,663.5 C 798.56,662.957 798.893,662.624 799.5,662.5C 800.17,664.291 800.837,665.958 801.5,667.5C 801.217,668.289 800.717,668.956 800,669.5C 799.809,667.292 799.309,665.292 798.5,663.5 Z"/></g>
<g><path style="opacity:1" fill="#adac9b" d="M 745.5,669.5 C 748.5,669.5 751.5,669.5 754.5,669.5C 754.66,671.199 754.494,672.866 754,674.5C 749.315,672.396 745.815,673.563 743.5,678C 746.615,681.494 750.115,684.661 754,687.5C 755.787,693.034 754.287,697.201 749.5,700C 745.848,700.499 742.182,700.665 738.5,700.5C 738.5,698.833 738.5,697.167 738.5,695.5C 742.543,697.154 746.377,696.821 750,694.5C 750.667,693.167 750.667,691.833 750,690.5C 746.317,687.813 742.983,684.813 740,681.5C 739.333,679.167 739.333,676.833 740,674.5C 741.73,672.598 743.563,670.931 745.5,669.5 Z"/></g>
<g><path style="opacity:1" fill="#f4de16" d="M 771.5,670.5 C 779.06,668.726 782.727,671.726 782.5,679.5C 782.196,683.114 781.029,686.448 779,689.5C 770.502,695.152 766.336,692.819 766.5,682.5C 765.982,677.542 767.648,673.542 771.5,670.5 Z"/></g>
<g><path style="opacity:1" fill="#ccc25e" d="M 917.5,667.5 C 917.5,669.833 917.5,672.167 917.5,674.5C 918.833,674.5 920.167,674.5 921.5,674.5C 920.081,675.451 918.415,675.784 916.5,675.5C 916.194,672.615 916.527,669.948 917.5,667.5 Z"/></g>
<g><path style="opacity:1" fill="#aeac99" d="M 730.5,672.5 C 731.833,672.5 733.167,672.5 734.5,672.5C 734.5,674.167 734.5,675.833 734.5,677.5C 733.127,677.343 731.793,677.51 730.5,678C 727.943,680.892 725.776,684.059 724,687.5C 723.677,692.866 723.177,698.199 722.5,703.5C 721.167,703.5 719.833,703.5 718.5,703.5C 718.269,694.126 718.769,684.792 720,675.5C 721.11,673.963 722.61,673.297 724.5,673.5C 724.338,675.527 724.505,677.527 725,679.5C 726.382,676.695 728.216,674.361 730.5,672.5 Z"/></g>
<g><path style="opacity:1" fill="#aeac9a" d="M 700.5,676.5 C 709.57,674.729 712.737,678.062 710,686.5C 705.578,690.622 700.745,694.122 695.5,697C 696.103,700.439 698.103,702.272 701.5,702.5C 704.781,702.109 707.615,700.776 710,698.5C 712.015,700.478 711.848,702.312 709.5,704C 698.006,710.42 691.673,707.087 690.5,694C 690.875,686.411 694.208,680.577 700.5,676.5 Z"/></g>
<g><path style="opacity:1" fill="#adac9a" d="M 661.5,726.5 C 659.744,725.448 659.077,723.781 659.5,721.5C 659.881,708.783 660.881,696.116 662.5,683.5C 663.736,682.754 665.07,682.421 666.5,682.5C 666.34,684.199 666.506,685.866 667,687.5C 669.76,681.703 674.26,679.537 680.5,681C 683.857,683.693 685.191,687.193 684.5,691.5C 684.074,704.593 677.407,711.26 664.5,711.5C 664.666,715.514 664.499,719.514 664,723.5C 663.764,725.119 662.931,726.119 661.5,726.5 Z"/></g>
<g><path style="opacity:1" fill="#efdb22" d="M 701.5,680.5 C 705.138,679.737 706.638,681.07 706,684.5C 703.536,687.798 700.37,690.132 696.5,691.5C 695.417,690.635 695.251,689.635 696,688.5C 697.273,685.403 699.107,682.736 701.5,680.5 Z"/></g>
<g><path style="opacity:1" fill="#f4df12" d="M 673.5,684.5 C 676.238,683.965 678.072,684.965 679,687.5C 680.558,694.32 679.058,700.32 674.5,705.5C 671.724,707.13 668.724,707.797 665.5,707.5C 664.515,698.488 667.182,690.821 673.5,684.5 Z"/></g>
<g><path style="opacity:1" fill="#c4bc6f" d="M 812.5,681.5 C 812.5,684.167 812.5,686.833 812.5,689.5C 813.833,689.5 815.167,689.5 816.5,689.5C 815.081,690.451 813.415,690.784 811.5,690.5C 811.19,687.287 811.523,684.287 812.5,681.5 Z"/></g>
<g><path style="opacity:1" fill="#cfc459" d="M 659.5,721.5 C 659.077,723.781 659.744,725.448 661.5,726.5C 660.791,727.404 659.791,727.737 658.5,727.5C 658.205,725.265 658.539,723.265 659.5,721.5 Z"/></g>
</svg>
