<?xml version="1.0" standalone="no"?>
<!DOCTYPE svg PUBLIC "-//W3C//DTD SVG 20010904//EN"
 "http://www.w3.org/TR/2001/REC-SVG-20010904/DTD/svg10.dtd">
<svg version="1.0" xmlns="http://www.w3.org/2000/svg"
 width="153.000000pt" height="172.000000pt" viewBox="0 0 172.000000 173.000000"
 preserveAspectRatio="xMidYMid meet">

<g transform="translate(0.000000,173.000000) scale(0.100000,-0.100000)"
fill="#000000" stroke="none">
<path d="M40 1525 l0 -155 155 0 155 0 0 155 0 155 -155 0 -155 0 0 -155z
m265 0 l0 -110 -112 -3 -113 -3 0 116 0 116 113 -3 112 -3 0 -110z"/>
<path d="M130 1525 l0 -65 65 0 65 0 0 65 0 65 -65 0 -65 0 0 -65z"/>
<path d="M400 1660 c0 -13 7 -20 20 -20 13 0 20 7 20 20 0 13 -7 20 -20 20
-13 0 -20 -7 -20 -20z"/>
<path d="M530 1660 c0 -17 7 -20 45 -20 41 0 45 -2 45 -25 0 -20 -5 -25 -26
-25 -23 0 -25 -3 -22 -42 l3 -43 62 -3 c58 -3 62 -1 65 20 2 15 11 24 26 26
22 3 22 2 22 -113 0 -115 0 -116 -22 -113 -19 2 -24 10 -26 46 -3 34 -7 42
-23 42 -12 0 -19 -7 -19 -20 0 -13 -7 -20 -20 -20 -17 0 -20 7 -20 40 0 36 -2
40 -25 40 -22 0 -25 -4 -25 -40 0 -36 -2 -40 -25 -40 -22 0 -25 4 -25 40 0 33
-3 40 -20 40 -18 0 -20 -7 -20 -65 0 -58 -2 -65 -20 -65 -13 0 -20 -7 -20 -20
0 -13 -7 -20 -19 -20 -13 0 -21 -8 -23 -22 -2 -19 -10 -24 -45 -26 -35 -3 -43
-7 -43 -23 0 -12 7 -19 20 -19 13 0 20 -7 20 -20 0 -13 7 -20 20 -20 13 0 20
7 20 20 0 15 7 20 25 20 18 0 25 -5 25 -20 0 -13 7 -20 20 -20 13 0 20 7 20
20 0 13 -7 20 -20 20 -17 0 -20 7 -20 45 l0 45 65 0 c58 0 65 -2 65 -20 0 -15
7 -20 26 -20 33 0 30 33 -4 38 -19 3 -22 9 -22 48 0 40 2 44 25 44 18 0 25 -5
25 -20 0 -13 7 -20 20 -20 19 0 20 -7 20 -90 0 -89 0 -90 25 -90 20 0 25 -5
25 -25 0 -23 -4 -25 -45 -25 l-45 0 0 45 c0 41 -2 45 -25 45 -18 0 -25 5 -25
20 0 13 -7 20 -20 20 -18 0 -20 -7 -20 -65 l0 -65 45 0 c38 0 45 -3 45 -20 0
-17 7 -20 45 -20 41 0 45 -2 45 -25 0 -18 5 -25 20 -25 15 0 20 7 20 25 0 24
2 25 65 25 58 0 65 2 65 20 0 17 7 20 45 20 l45 0 0 45 0 45 50 0 50 0 0 -65
c0 -58 2 -65 20 -65 13 0 20 7 20 20 0 13 7 20 20 20 13 0 20 7 20 20 0 13 -7
20 -20 20 -18 0 -20 7 -20 70 0 62 -2 70 -19 70 -13 0 -21 -8 -23 -22 -3 -20
-10 -23 -50 -26 -46 -3 -48 -2 -48 22 0 24 -4 26 -40 26 -33 0 -40 -3 -40 -20
0 -13 7 -20 20 -20 15 0 20 -7 20 -25 0 -18 -5 -25 -19 -25 -13 0 -21 -8 -23
-22 -2 -15 -11 -24 -25 -26 -15 -2 -23 -10 -23 -23 0 -14 -7 -19 -26 -19 -21
0 -25 4 -22 23 2 14 11 23 26 25 14 2 22 10 22 23 0 12 7 19 20 19 13 0 20 7
20 20 0 13 -7 20 -20 20 -15 0 -20 7 -20 25 0 18 5 25 20 25 13 0 20 7 20 19
0 16 -8 20 -42 23 -43 3 -43 3 -46 46 -3 39 -1 42 22 42 19 0 26 -5 26 -20 0
-13 7 -20 20 -20 13 0 20 7 20 20 0 13 -7 20 -20 20 -17 0 -20 7 -20 45 0 38
3 45 20 45 15 0 20 7 20 25 0 20 5 25 25 25 18 0 25 5 25 20 0 15 7 20 25 20
23 0 25 -4 25 -45 l0 -45 -45 0 c-38 0 -45 -3 -45 -20 0 -13 7 -20 20 -20 17
0 20 -7 20 -45 0 -38 -3 -45 -20 -45 -13 0 -20 -7 -20 -20 0 -13 7 -20 20 -20
13 0 20 7 20 20 0 13 7 20 20 20 13 0 20 7 20 20 0 15 7 20 25 20 18 0 25 -5
25 -20 0 -13 7 -20 20 -20 13 0 20 7 20 20 0 15 7 20 25 20 18 0 25 -5 25 -20
0 -13 -7 -20 -20 -20 -13 0 -20 -7 -20 -20 0 -18 7 -20 60 -20 53 0 60 2 60
20 0 13 -7 20 -20 20 -13 0 -20 7 -20 20 0 15 7 20 25 20 18 0 25 -5 25 -20 0
-13 7 -20 20 -20 18 0 20 7 20 65 0 58 -2 65 -19 65 -13 0 -21 -8 -23 -22 -2
-15 -11 -24 -25 -26 -15 -2 -23 -10 -23 -23 0 -12 -7 -19 -20 -19 -13 0 -20 7
-20 20 0 17 -7 20 -45 20 l-45 0 0 70 c0 63 2 70 20 70 17 0 20 7 20 45 0 38
-3 45 -20 45 -15 0 -20 -7 -20 -25 0 -24 -2 -25 -65 -25 -58 0 -65 -2 -65 -20
0 -15 -7 -20 -25 -20 -20 0 -25 5 -25 25 0 18 5 25 20 25 13 0 20 7 20 20 0
17 -7 20 -39 20 -33 0 -40 -4 -43 -22 -2 -15 -11 -24 -25 -26 -15 -2 -23 -10
-23 -23 0 -14 -7 -19 -25 -19 -23 0 -25 4 -25 45 l0 45 -85 0 c-78 0 -85 -2
-85 -20z m310 -96 c0 -21 -4 -25 -22 -22 -15 2 -24 11 -26 26 -3 18 1 22 22
22 21 0 26 -5 26 -26z m-42 -306 c-2 -15 -11 -24 -25 -26 -19 -3 -23 1 -23 22
0 21 5 26 26 26 21 0 25 -4 22 -22z"/>
<path d="M1110 1635 c0 -38 3 -45 19 -45 16 0 20 -8 23 -42 2 -31 8 -44 21
-46 14 -3 17 4 17 42 0 39 -3 46 -20 46 -15 0 -20 7 -20 25 0 18 5 25 20 25
13 0 20 7 20 20 0 17 -7 20 -40 20 l-40 0 0 -45z"/>
<path d="M1380 1525 l0 -155 155 0 156 0 -3 153 -3 152 -152 3 -153 3 0 -156z
m265 0 l0 -110 -112 -3 -113 -3 0 116 0 116 113 -3 112 -3 0 -110z"/>
<path d="M1470 1525 l0 -65 65 0 65 0 0 65 0 65 -65 0 -65 0 0 -65z"/>
<path d="M440 1610 c0 -13 7 -20 20 -20 13 0 20 -7 20 -20 0 -13 7 -20 20 -20
17 0 20 7 20 40 l0 40 -40 0 c-33 0 -40 -3 -40 -20z"/>
<path d="M1200 1610 c0 -13 7 -20 20 -20 13 0 20 -7 20 -20 0 -13 7 -20 20
-20 13 0 20 7 20 20 0 13 -7 20 -20 20 -13 0 -20 7 -20 20 0 13 -7 20 -20 20
-13 0 -20 -7 -20 -20z"/>
<path d="M1290 1610 c0 -13 7 -20 20 -20 13 0 20 7 20 20 0 13 -7 20 -20 20
-13 0 -20 -7 -20 -20z"/>
<path d="M1290 1435 c0 -98 1 -105 20 -105 19 0 20 7 20 105 0 98 -1 105 -20
105 -19 0 -20 -7 -20 -105z"/>
<path d="M440 1480 c0 -13 7 -20 20 -20 13 0 20 7 20 20 0 13 -7 20 -20 20
-13 0 -20 -7 -20 -20z"/>
<path d="M530 1480 c0 -13 7 -20 20 -20 13 0 20 7 20 20 0 13 -7 20 -20 20
-13 0 -20 -7 -20 -20z"/>
<path d="M400 1370 c0 -33 3 -40 20 -40 17 0 20 7 20 40 0 33 -3 40 -20 40
-17 0 -20 -7 -20 -40z"/>
<path d="M40 1300 c0 -13 7 -20 20 -20 17 0 20 -7 20 -45 l0 -45 45 0 c38 0
45 3 45 19 0 13 -8 21 -22 23 -19 2 -24 10 -26 46 -3 42 -3 42 -43 42 -32 0
-39 -3 -39 -20z"/>
<path d="M170 1300 c0 -17 7 -20 45 -20 38 0 45 3 45 20 0 17 -7 20 -45 20
-38 0 -45 -3 -45 -20z"/>
<path d="M310 1300 c0 -13 7 -20 20 -20 13 0 20 7 20 20 0 13 -7 20 -20 20
-13 0 -20 -7 -20 -20z"/>
<path d="M1200 1300 c0 -15 -7 -20 -25 -20 -23 0 -25 -4 -25 -45 0 -38 3 -45
19 -45 13 0 21 8 23 23 2 14 11 23 26 25 18 3 22 -1 22 -22 0 -19 -5 -26 -20
-26 -13 0 -20 -7 -20 -20 0 -13 7 -20 20 -20 13 0 20 7 20 20 0 15 7 20 26 20
21 0 25 -4 22 -22 -2 -15 -11 -24 -25 -26 -21 -3 -23 -9 -23 -68 0 -57 -2 -64
-19 -64 -13 0 -21 -8 -23 -22 -2 -15 -11 -24 -25 -26 -19 -3 -23 -10 -23 -43
0 -32 3 -39 20 -39 13 0 20 7 20 20 0 15 7 20 25 20 23 0 25 -4 25 -40 0 -33
3 -40 20 -40 18 0 20 7 20 59 0 50 -3 59 -20 64 -12 3 -20 14 -20 26 0 18 6
21 45 21 38 0 45 -3 45 -20 0 -13 7 -20 20 -20 13 0 20 7 20 20 0 13 -7 20
-20 20 -19 0 -20 7 -20 90 l0 90 115 0 c108 0 115 -1 115 -20 0 -13 7 -20 20
-20 13 0 20 7 20 19 0 16 8 20 42 23 31 2 44 8 46 21 3 12 -3 17 -22 17 -21 0
-26 5 -26 25 0 18 -5 25 -20 25 -15 0 -20 -7 -20 -25 0 -23 -4 -25 -45 -25
-41 0 -45 2 -45 25 0 23 -4 25 -45 25 -38 0 -45 3 -45 20 0 13 -7 20 -20 20
-13 0 -20 -7 -20 -20 0 -13 7 -20 20 -20 15 0 20 -7 20 -25 0 -26 -1 -26 -67
-23 l-68 3 -3 43 c-3 42 -3 42 -43 42 -32 0 -39 -3 -39 -20z"/>
<path d="M1650 1299 c0 -25 33 -22 38 4 2 12 -3 17 -17 17 -15 0 -21 -6 -21
-21z"/>
<path d="M220 1210 c0 -13 7 -20 20 -20 13 0 20 7 20 20 0 13 -7 20 -20 20
-13 0 -20 -7 -20 -20z"/>
<path d="M40 1120 c0 -13 7 -20 19 -20 16 0 20 -8 23 -42 2 -31 8 -44 20 -46
11 -2 18 5 20 20 2 15 11 24 26 26 18 3 22 -1 22 -22 0 -19 -5 -26 -19 -26
-13 0 -21 -8 -23 -22 -2 -15 -11 -24 -25 -26 -19 -3 -23 -10 -23 -43 0 -35 3
-39 25 -39 18 0 25 -5 25 -20 0 -13 7 -20 20 -20 15 0 20 -7 20 -25 0 -24 -2
-25 -65 -25 -58 0 -65 -2 -65 -20 0 -13 7 -20 20 -20 15 0 20 -7 20 -25 0 -18
-5 -25 -20 -25 -19 0 -20 -7 -20 -155 0 -148 1 -155 20 -155 17 0 20 7 20 45
l0 45 45 0 45 0 0 40 c0 33 -3 40 -20 40 -13 0 -20 -7 -20 -20 0 -15 -7 -20
-25 -20 -23 0 -25 4 -25 45 l0 45 45 0 c38 0 45 -3 45 -20 0 -19 7 -20 90 -20
83 0 90 1 90 20 0 18 -7 20 -71 20 -67 0 -70 1 -67 23 2 14 11 23 26 25 14 2
22 10 22 23 0 12 7 19 19 19 13 0 21 8 23 23 2 14 11 23 26 25 18 3 22 -1 22
-22 0 -19 -5 -26 -20 -26 -13 0 -20 -7 -20 -20 0 -18 7 -20 65 -20 63 0 65 -1
65 -25 0 -18 -5 -25 -20 -25 -13 0 -20 -7 -20 -20 0 -13 7 -20 20 -20 15 0 20
-7 20 -25 0 -18 -5 -25 -20 -25 -13 0 -20 -7 -20 -19 0 -20 -25 -35 -41 -25
-5 3 -9 14 -9 25 0 16 -7 19 -45 19 -39 0 -45 -3 -45 -21 0 -12 -8 -23 -20
-26 -27 -7 -27 -43 0 -43 15 0 20 7 20 25 0 23 4 25 45 25 41 0 45 -2 45 -25
0 -18 -5 -25 -20 -25 -13 0 -20 -7 -20 -20 0 -17 7 -20 41 -20 32 0 42 -4 46
-20 7 -27 43 -27 43 0 0 13 7 20 20 20 13 0 20 -7 20 -20 0 -17 7 -20 45 -20
38 0 45 3 45 20 0 17 7 20 45 20 38 0 45 -3 45 -19 0 -13 8 -21 23 -23 14 -2
23 -11 25 -25 3 -19 10 -23 43 -23 32 0 39 3 39 20 0 13 -7 20 -20 20 -17 0
-20 7 -20 45 0 38 3 45 20 45 14 0 20 7 20 24 0 19 -4 23 -20 19 -11 -3 -20
-14 -20 -24 0 -17 -8 -19 -65 -19 -58 0 -65 2 -65 20 0 15 -7 20 -25 20 -18 0
-25 -5 -25 -20 0 -13 -7 -20 -20 -20 -13 0 -20 -7 -20 -20 0 -15 -7 -20 -25
-20 -18 0 -25 5 -25 20 0 13 7 20 20 20 13 0 20 7 20 20 0 13 -7 20 -20 20
-13 0 -20 -7 -20 -20 0 -13 -7 -20 -20 -20 -17 0 -20 7 -20 45 0 38 3 45 20
45 17 0 20 7 20 45 0 38 3 45 20 45 27 0 27 36 0 43 -16 4 -20 14 -20 51 0 39
3 46 20 46 13 0 20 7 20 20 0 17 -7 20 -40 20 -33 0 -40 3 -40 20 0 13 -7 20
-20 20 -13 0 -20 -7 -20 -20 0 -13 7 -20 20 -20 15 0 20 -7 20 -25 0 -20 -5
-25 -25 -25 -20 0 -25 5 -25 25 0 23 -4 25 -46 25 -41 0 -45 2 -42 23 2 14 11
23 26 25 30 4 25 36 -6 40 -32 5 -30 42 3 42 18 0 25 5 25 19 0 16 -8 20 -42
23 -36 2 -44 7 -46 26 -3 20 1 22 42 22 39 0 46 -3 46 -19 0 -13 8 -21 23 -23
14 -2 23 -11 25 -25 2 -15 10 -23 23 -23 12 0 19 -7 19 -20 0 -13 7 -20 20
-20 17 0 20 7 20 40 0 33 -3 40 -20 40 -15 0 -20 7 -20 25 0 23 4 25 45 25 38
0 45 -3 45 -20 0 -13 7 -20 20 -20 13 0 20 7 20 19 0 13 8 21 22 23 13 2 24
11 26 20 3 14 -6 17 -45 20 -41 3 -48 6 -51 26 -5 32 -42 30 -42 -3 0 -18 -5
-25 -20 -25 -13 0 -20 -7 -20 -20 0 -17 -7 -20 -45 -20 -38 0 -45 3 -45 19 0
13 -8 21 -22 23 -15 2 -24 11 -26 26 -3 18 1 22 22 22 19 0 26 -5 26 -20 0
-13 7 -20 20 -20 13 0 20 7 20 20 0 13 -7 20 -20 20 -13 0 -20 7 -20 20 0 18
-7 20 -65 20 -58 0 -65 -2 -65 -20 0 -13 7 -20 20 -20 17 0 20 -7 20 -45 0
-38 -3 -45 -20 -45 -18 0 -20 -7 -20 -65 0 -58 2 -65 20 -65 15 0 20 -7 20
-25 0 -20 -5 -25 -25 -25 -20 0 -25 5 -25 25 0 18 -5 25 -20 25 -18 0 -20 7
-20 65 0 58 2 65 20 65 17 0 20 7 20 45 0 38 -3 45 -20 45 -13 0 -20 7 -20 20
0 18 -7 20 -65 20 -58 0 -65 -2 -65 -20z m220 -375 l0 -45 -45 0 c-41 0 -45
-2 -45 -25 0 -23 -4 -25 -45 -25 -41 0 -45 2 -45 25 0 18 5 25 19 25 13 0 21
8 23 23 2 14 11 23 26 25 14 2 22 10 22 23 0 16 7 19 45 19 l45 0 0 -45z"/>
<path d="M1380 1120 c0 -17 7 -20 40 -20 33 0 40 3 40 20 0 17 -7 20 -40 20
-33 0 -40 -3 -40 -20z"/>
<path d="M1510 1120 c0 -13 -7 -20 -20 -20 -17 0 -20 -7 -20 -45 0 -38 3 -45
20 -45 15 0 20 7 20 25 0 23 4 25 45 25 41 0 45 -2 45 -25 0 -18 -5 -25 -19
-25 -13 0 -21 -8 -23 -22 -2 -15 -11 -24 -25 -26 -19 -3 -23 -10 -23 -43 0
-32 3 -39 20 -39 13 0 20 7 20 20 0 17 8 19 68 22 l67 3 3 62 c3 58 1 62 -20
65 -33 4 -38 45 -6 50 12 2 24 11 26 21 3 14 -4 17 -42 17 -39 0 -46 -3 -46
-20 0 -15 -7 -20 -25 -20 -18 0 -25 5 -25 20 0 13 -7 20 -20 20 -13 0 -20 -7
-20 -20z m138 -132 c-2 -15 -11 -24 -25 -26 -19 -3 -23 1 -23 22 0 21 5 26 26
26 21 0 25 -4 22 -22z"/>
<path d="M980 1055 l0 -45 40 0 c33 0 40 3 40 20 0 13 -7 20 -20 20 -15 0 -20
7 -20 25 0 18 -5 25 -20 25 -17 0 -20 -7 -20 -45z"/>
<path d="M890 1030 c0 -13 7 -20 20 -20 13 0 20 7 20 20 0 13 -7 20 -20 20
-13 0 -20 -7 -20 -20z"/>
<path d="M1110 1030 c0 -13 7 -20 20 -20 13 0 20 7 20 20 0 13 -7 20 -20 20
-13 0 -20 -7 -20 -20z"/>
<path d="M1380 1030 c0 -13 7 -20 20 -20 13 0 20 -7 20 -20 0 -13 7 -20 20
-20 13 0 20 7 20 20 0 13 -7 20 -20 20 -13 0 -20 7 -20 20 0 13 -7 20 -20 20
-13 0 -20 -7 -20 -20z"/>
<path d="M620 940 c0 -17 -7 -20 -45 -20 -38 0 -45 -3 -45 -19 0 -13 -8 -21
-22 -23 -13 -2 -24 -11 -26 -20 -3 -15 4 -18 42 -18 39 0 46 3 46 20 0 15 7
20 25 20 20 0 25 -5 25 -25 0 -20 -5 -25 -25 -25 -22 0 -25 -4 -25 -40 0 -36
3 -40 25 -40 18 0 25 5 25 20 0 17 7 20 40 20 33 0 40 3 40 20 0 13 -7 20 -20
20 -15 0 -20 7 -20 25 0 20 5 25 25 25 18 0 25 -5 25 -20 0 -13 7 -20 20 -20
13 0 20 7 20 20 0 15 7 20 25 20 18 0 25 -5 25 -20 0 -13 7 -20 20 -20 17 0
20 7 20 40 0 33 3 40 20 40 13 0 20 7 20 20 0 13 -7 20 -20 20 -13 0 -20 -7
-20 -20 0 -14 -7 -20 -21 -20 -12 0 -23 8 -26 20 -5 18 -14 20 -89 20 -77 0
-84 -2 -84 -20z m40 -40 c0 -13 -7 -20 -20 -20 -13 0 -20 7 -20 20 0 13 7 20
20 20 13 0 20 -7 20 -20z"/>
<path d="M1020 940 c0 -13 -7 -20 -20 -20 -17 0 -20 -7 -20 -40 0 -33 3 -40
20 -40 13 0 20 7 20 20 0 13 7 20 20 20 13 0 20 7 20 19 0 13 8 21 22 23 13 2
24 11 26 21 3 14 -4 17 -42 17 -39 0 -46 -3 -46 -20z"/>
<path d="M1380 940 c0 -13 7 -20 20 -20 13 0 20 7 20 20 0 13 -7 20 -20 20
-13 0 -20 -7 -20 -20z"/>
<path d="M888 878 c-2 -36 -7 -44 -25 -46 -15 -2 -23 -10 -23 -23 0 -14 -7
-19 -25 -19 -18 0 -25 5 -25 20 0 13 -7 20 -20 20 -17 0 -20 -7 -20 -45 0 -38
-3 -45 -20 -45 -17 0 -19 -8 -22 -87 l-3 -88 -68 -3 c-58 -2 -68 -6 -65 -20 3
-14 17 -18 71 -20 59 -3 67 -5 67 -22 0 -13 7 -20 20 -20 13 0 20 7 20 20 0
13 7 20 20 20 17 0 20 7 20 45 l0 45 50 0 c43 0 50 -3 50 -20 0 -17 7 -20 40
-20 33 0 40 3 40 20 0 13 -7 20 -20 20 -13 0 -20 7 -20 19 0 13 -8 21 -22 23
-15 2 -24 11 -26 26 -2 14 -10 22 -23 22 -14 0 -19 7 -19 26 0 21 4 25 23 22
14 -2 23 -11 25 -25 2 -15 10 -23 23 -23 16 0 19 7 19 45 0 38 3 45 20 45 13
0 20 7 20 20 0 13 -7 20 -20 20 -17 0 -20 7 -20 45 0 38 -3 45 -19 45 -16 0
-20 -8 -23 -42z"/>
<path d="M1330 900 c0 -13 7 -20 20 -20 13 0 20 7 20 20 0 13 -7 20 -20 20
-13 0 -20 -7 -20 -20z"/>
<path d="M1068 813 c-3 -62 -5 -68 -25 -71 -15 -2 -23 -10 -23 -23 0 -12 -7
-19 -20 -19 -13 0 -20 -7 -20 -20 0 -13 7 -20 20 -20 15 0 20 -7 20 -25 0 -18
5 -25 20 -25 15 0 20 7 20 25 0 20 5 25 25 25 18 0 25 5 25 20 0 13 7 20 20
20 17 0 20 7 20 45 0 38 3 45 20 45 13 0 20 7 20 20 0 13 -7 20 -20 20 -13 0
-20 -7 -20 -20 0 -13 -7 -20 -19 -20 -16 0 -20 8 -23 42 -2 31 -8 44 -20 46
-14 3 -18 -7 -20 -65z"/>
<path d="M1420 860 c0 -13 7 -20 20 -20 13 0 20 7 20 20 0 13 -7 20 -20 20
-13 0 -20 -7 -20 -20z"/>
<path d="M1648 838 c-2 -36 -7 -44 -25 -46 -17 -3 -23 -10 -23 -28 0 -19 -5
-24 -25 -24 -23 0 -25 4 -25 45 l0 45 -39 0 c-40 0 -40 0 -43 -42 -2 -36 -7
-44 -25 -46 -15 -2 -23 -10 -23 -23 0 -12 -7 -19 -20 -19 -18 0 -20 -7 -20
-65 l0 -65 39 0 c40 0 40 0 43 43 2 35 7 43 26 45 14 2 22 10 22 23 0 17 7 19
65 19 63 0 65 1 65 25 0 20 5 25 25 25 25 0 26 1 23 62 -2 50 -7 63 -20 66
-13 3 -17 -6 -20 -40z"/>
<path d="M1290 810 c0 -17 -7 -20 -45 -20 -38 0 -45 -3 -45 -20 0 -13 7 -20
20 -20 15 0 20 -7 20 -25 0 -18 -5 -25 -20 -25 -13 0 -20 -7 -20 -20 0 -13 7
-20 20 -20 20 0 21 -5 18 -92 -3 -81 -5 -93 -20 -92 -13 1 -18 -5 -18 -22 0
-21 4 -24 40 -24 l40 0 0 45 c0 41 2 45 25 45 18 0 25 -5 25 -20 0 -13 7 -20
20 -20 13 0 20 7 20 20 0 13 -7 20 -20 20 -13 0 -20 7 -20 19 0 13 -8 21 -22
23 -15 2 -24 11 -26 26 -3 18 1 22 22 22 24 0 26 3 26 45 0 38 3 45 19 45 13
0 21 8 23 23 2 14 11 23 26 25 32 5 30 42 -3 42 -18 0 -25 5 -25 20 0 17 -7
20 -40 20 -33 0 -40 -3 -40 -20z m40 -85 c0 -20 -5 -25 -25 -25 -18 0 -25 5
-25 18 0 24 8 32 32 32 13 0 18 -7 18 -25z"/>
<path d="M570 680 c0 -15 7 -20 25 -20 18 0 25 5 25 20 0 15 -7 20 -25 20 -18
0 -25 -5 -25 -20z"/>
<path d="M1648 678 c-3 -21 -9 -23 -70 -26 -60 -3 -68 -5 -68 -22 0 -18 7 -20
66 -20 57 0 67 -3 71 -20 3 -11 14 -20 25 -20 17 0 19 6 16 62 -2 49 -7 63
-20 66 -11 2 -18 -5 -20 -20z"/>
<path d="M1110 630 c0 -13 -7 -20 -19 -20 -13 0 -21 -8 -23 -22 -2 -15 -11
-24 -25 -26 -19 -3 -23 -10 -23 -43 0 -32 3 -39 20 -39 13 0 20 7 20 20 0 15
7 20 25 20 18 0 25 -5 25 -20 0 -13 7 -20 20 -20 13 0 20 7 20 20 0 13 -7 20
-20 20 -17 0 -20 7 -20 45 0 38 3 45 20 45 13 0 20 7 20 20 0 13 -7 20 -20 20
-13 0 -20 -7 -20 -20z"/>
<path d="M840 540 c0 -13 7 -20 20 -20 13 0 20 7 20 20 0 13 -7 20 -20 20 -13
0 -20 -7 -20 -20z"/>
<path d="M1152 543 c5 -26 38 -29 38 -4 0 15 -6 21 -21 21 -14 0 -19 -5 -17
-17z"/>
<path d="M1470 539 c0 -25 33 -22 38 4 2 12 -3 17 -17 17 -15 0 -21 -6 -21
-21z"/>
<path d="M1560 540 c0 -15 -7 -20 -24 -20 -18 0 -25 -6 -28 -22 -2 -15 -10
-23 -23 -23 -13 0 -21 8 -23 23 -2 14 -10 22 -23 22 -16 0 -19 -7 -19 -45 l0
-45 -65 0 -64 0 -3 -87 -3 -88 -42 -3 c-35 -3 -43 -7 -43 -23 0 -14 -7 -19
-25 -19 -20 0 -25 5 -25 25 0 18 5 25 20 25 13 0 20 7 20 20 0 17 -7 20 -40
20 -33 0 -40 3 -40 20 0 13 -7 20 -19 20 -10 0 -21 -9 -24 -20 -3 -12 -14 -20
-26 -20 -18 0 -21 -6 -21 -45 0 -38 3 -45 20 -45 15 0 20 7 20 25 0 20 5 25
25 25 20 0 25 -5 25 -25 0 -18 -5 -25 -19 -25 -13 0 -21 -8 -23 -23 -2 -14
-11 -23 -25 -25 -34 -5 -31 -42 3 -42 21 0 25 -4 22 -23 -2 -14 -11 -23 -25
-25 -15 -2 -23 -10 -23 -23 0 -17 7 -19 65 -19 58 0 65 2 65 20 0 13 -7 20
-20 20 -18 0 -20 7 -20 70 0 63 2 70 19 70 16 0 20 -8 23 -42 3 -43 3 -43 46
-46 34 -3 42 -7 42 -23 0 -12 7 -19 20 -19 18 0 20 7 20 65 0 63 1 65 25 65
18 0 25 -5 25 -20 0 -17 7 -20 45 -20 38 0 45 3 45 20 0 17 7 20 45 20 38 0
45 -3 45 -20 0 -13 7 -20 20 -20 18 0 20 7 20 65 0 63 1 65 25 65 20 0 25 5
25 25 0 18 5 25 20 25 17 0 20 7 20 40 0 33 -3 40 -20 40 -15 0 -20 7 -20 26
0 21 4 25 23 22 14 -2 23 -11 25 -26 2 -15 9 -22 20 -20 12 2 18 15 20 46 3
39 1 42 -22 42 -19 0 -26 5 -26 20 0 17 -7 20 -40 20 -33 0 -40 -3 -40 -20z
m0 -155 c0 -41 -2 -45 -25 -45 -23 0 -25 4 -25 45 0 41 2 45 25 45 23 0 25 -4
25 -45z m-92 -62 l-3 -68 -67 -3 -68 -3 0 71 0 70 70 0 71 0 -3 -67z"/>
<path d="M1380 320 c0 -13 7 -20 20 -20 13 0 20 7 20 20 0 13 -7 20 -20 20
-13 0 -20 -7 -20 -20z"/>
<path d="M890 500 c0 -13 7 -20 20 -20 15 0 20 -7 20 -25 0 -23 -4 -25 -45
-25 -38 0 -45 -3 -45 -20 0 -13 -7 -20 -20 -20 -13 0 -20 -7 -20 -20 0 -13 7
-20 20 -20 13 0 20 7 20 20 0 15 7 20 25 20 23 0 25 -4 25 -45 0 -38 3 -45 20
-45 15 0 20 -7 20 -25 0 -24 -2 -25 -65 -25 -58 0 -65 -2 -65 -20 0 -15 -7
-20 -25 -20 -18 0 -25 5 -25 20 0 13 -7 20 -20 20 -13 0 -20 -7 -20 -20 0 -15
-7 -20 -25 -20 -23 0 -25 4 -25 45 0 38 -3 45 -20 45 -13 0 -20 7 -20 20 0 15
-7 20 -25 20 -18 0 -25 -5 -25 -20 0 -13 -7 -20 -20 -20 -17 0 -20 -7 -20 -45
0 -38 3 -45 20 -45 13 0 20 -7 20 -20 0 -15 7 -20 25 -20 20 0 25 -5 25 -25 0
-20 -5 -25 -25 -25 -18 0 -25 5 -25 20 0 13 -7 20 -20 20 -18 0 -20 -7 -20
-65 l0 -65 65 0 65 0 0 70 c0 68 1 70 25 70 20 0 25 -5 25 -25 0 -18 5 -25 20
-25 13 0 20 -7 20 -20 0 -17 7 -20 45 -20 l45 0 0 45 0 45 45 0 c41 0 45 -2
45 -25 0 -18 5 -25 20 -25 19 0 20 7 20 90 0 83 -1 90 -20 90 -18 0 -20 7 -20
65 0 58 2 65 20 65 17 0 20 7 20 45 l0 45 -40 0 c-33 0 -40 -3 -40 -20z m-270
-245 c0 -41 -2 -45 -25 -45 -23 0 -25 4 -25 45 0 41 2 45 25 45 23 0 25 -4 25
-45z m178 -112 c3 -19 -1 -23 -22 -23 -21 0 -26 5 -26 26 0 21 4 25 23 22 14
-2 23 -11 25 -25z"/>
<path d="M130 410 c0 -13 7 -20 20 -20 13 0 20 7 20 20 0 13 -7 20 -20 20 -13
0 -20 -7 -20 -20z"/>
<path d="M1070 410 c0 -13 7 -20 20 -20 13 0 20 7 20 20 0 13 -7 20 -20 20
-13 0 -20 -7 -20 -20z"/>
<path d="M1150 390 c0 -33 3 -40 20 -40 17 0 20 7 20 40 0 33 -3 40 -20 40
-17 0 -20 -7 -20 -40z"/>
<path d="M980 370 c0 -17 7 -20 40 -20 33 0 40 3 40 20 0 17 -7 20 -40 20 -33
0 -40 -3 -40 -20z"/>
<path d="M40 185 l0 -156 153 3 152 3 3 153 3 152 -156 0 -155 0 0 -155z m268
3 l-3 -113 -110 0 -110 0 -3 113 -3 112 116 0 116 0 -3 -112z"/>
<path d="M130 185 l0 -65 65 0 65 0 0 65 0 65 -65 0 -65 0 0 -65z"/>
<path d="M1650 319 c0 -14 5 -19 17 -17 26 5 29 38 4 38 -15 0 -21 -6 -21 -21z"/>
<path d="M400 210 c0 -33 3 -40 20 -40 13 0 20 7 20 20 0 13 7 20 20 20 13 0
20 7 20 20 0 17 -7 20 -40 20 l-40 0 0 -40z"/>
<path d="M1600 211 c0 -33 4 -40 23 -43 14 -2 22 -10 22 -23 0 -13 -8 -21 -22
-23 -18 -3 -23 2 -23 17 0 14 -6 21 -20 21 -17 0 -20 -7 -20 -39 0 -40 0 -40
43 -43 35 -3 43 -7 45 -26 2 -15 9 -22 20 -20 14 3 17 18 20 91 l3 87 -26 0
c-18 0 -25 5 -25 20 0 13 -7 20 -20 20 -17 0 -20 -7 -20 -39z"/>
<path d="M440 140 c0 -13 -7 -20 -20 -20 -17 0 -20 -7 -20 -46 0 -38 3 -45 18
-42 9 2 18 13 20 26 2 14 10 22 23 22 16 0 19 7 19 40 0 33 -3 40 -20 40 -13
0 -20 -7 -20 -20z"/>
<path d="M1420 140 c0 -13 -7 -20 -19 -20 -13 0 -21 -8 -23 -22 -2 -19 -10
-24 -45 -26 -35 -3 -43 -7 -43 -23 0 -17 7 -19 65 -19 l65 0 0 45 c0 41 2 45
25 45 18 0 25 -5 25 -20 0 -13 7 -20 20 -20 17 0 20 7 20 40 l0 40 -45 0 c-38
0 -45 -3 -45 -20z"/>
<path d="M840 49 c0 -18 5 -20 42 -17 31 2 44 8 46 21 3 14 -4 17 -42 17 -40
0 -46 -3 -46 -21z"/>
<path d="M1510 50 c0 -13 7 -20 20 -20 13 0 20 7 20 20 0 13 -7 20 -20 20 -13
0 -20 -7 -20 -20z"/>
</g>
</svg>
